<?xml version="1.0" encoding="utf-8"?>
<!-- Generator: Adobe Illustrator 23.0.1, SVG Export Plug-In . SVG Version: 6.00 Build 0)  -->
<svg version="1.1" id="Layer_1" xmlns="http://www.w3.org/2000/svg" xmlns:xlink="http://www.w3.org/1999/xlink" x="0px" y="0px"
	 viewBox="0 0 283.397 246.099" style="enable-background:new 0 0 283.397 246.099;" xml:space="preserve">
<g>
	<path d="M25.7,63.099c-0.4,0-0.917-0.05-1.55-0.15c-0.634-0.1-1.3-0.2-2-0.3c-0.7-0.1-1.367-0.2-2-0.3
		c-0.634-0.1-1.084-0.15-1.35-0.15c-1.067,0-2.034,0.134-2.9,0.4c-0.734,2.6-1.35,5.85-1.85,9.75s-0.817,8.45-0.95,13.65
		c-1.134,0.333-2,0.5-2.6,0.5s-1.217-0.067-1.85-0.2c-0.634-0.134-1.217-0.417-1.75-0.85c-0.534-0.435-0.984-1.018-1.35-1.75
		c-0.367-0.733-0.55-1.7-0.55-2.9c0-0.533,0.05-1.215,0.15-2.05c0.1-0.833,0.15-1.416,0.15-1.75c0-0.733,0.1-2.016,0.3-3.85
		c0.2-1.833,0.433-3.983,0.7-6.45c0.266-2.466,0.583-5.15,0.95-8.05c0.366-2.9,0.683-5.783,0.95-8.65c0.266-2.866,0.5-5.565,0.7-8.1
		c0.2-2.533,0.3-4.666,0.3-6.4v-1.2c0-0.8,0.365-1.266,1.1-1.4c0.733-0.133,1.266-0.2,1.6-0.2l3,0.8c0.6,0.2,1.083,0.55,1.45,1.05
		c0.366,0.5,0.65,1.1,0.85,1.8c0.2,0.7,0.333,1.45,0.4,2.25c0.065,0.8,0.1,1.567,0.1,2.3c0,0.535-0.067,1.334-0.2,2.4
		c-0.134,1.067-0.267,2.217-0.4,3.45c-0.134,1.234-0.267,2.467-0.4,3.7c-0.135,1.234-0.2,2.284-0.2,3.15c0,1.2,0.466,1.95,1.4,2.25
		c0.933,0.3,2.3,0.45,4.1,0.45h1.2c0.865,0,1.6-0.033,2.2-0.1c0.6-0.066,1.033-0.1,1.3-0.1h0.4c0.866-3.6,1.65-7.616,2.35-12.05
		c0.7-4.433,1.383-9.482,2.05-15.15c0.333-2.266,1.033-3.433,2.1-3.5h0.9c1.266,0,2.315,0.185,3.15,0.55
		c0.833,0.367,1.35,0.917,1.55,1.65c-0.067,1.6-0.25,3.817-0.55,6.65c-0.3,2.834-0.65,6-1.05,9.5s-0.817,7.185-1.25,11.05
		c-0.435,3.867-0.85,7.617-1.25,11.25c-0.4,3.635-0.717,7.018-0.95,10.15c-0.234,3.134-0.35,5.7-0.35,7.7
		c0,1.066,0.016,2.083,0.05,3.05c0.033,0.965,0.083,1.916,0.15,2.85c0,0.466-0.15,0.916-0.45,1.35c-0.3,0.433-0.684,0.65-1.15,0.65
		c-2.667,0-4.517-0.75-5.55-2.25c-1.035-1.5-1.55-3.684-1.55-6.55c0-0.4,0.016-0.933,0.05-1.6c0.033-0.666,0.065-1.383,0.1-2.15
		c0.033-0.766,0.065-1.483,0.1-2.15c0.033-0.666,0.05-1.2,0.05-1.6c0-0.533,0.05-1.366,0.15-2.5c0.1-1.133,0.216-2.333,0.35-3.6
		c0.133-1.266,0.25-2.483,0.35-3.65c0.1-1.166,0.15-2.05,0.15-2.65H25.7z"/>
	<path d="M57.3,81.099c0,0.534-0.134,1.067-0.4,1.6c-0.267,0.534-0.767,1.166-1.5,1.9c-1.134,0-2.185-0.1-3.15-0.3
		c-0.967-0.2-1.8-0.6-2.5-1.2c-0.7-0.6-1.25-1.466-1.65-2.6c-0.4-1.133-0.6-2.666-0.6-4.6c0-1.133-0.117-2.266-0.35-3.4
		c-0.234-1.133-0.35-2.266-0.35-3.4c0-3.4-0.2-6.633-0.6-9.7c-0.4-3.065-0.6-6.3-0.6-9.7c0-1.4,0.566-2.466,1.7-3.2
		c0.666-0.2,1.3-0.35,1.9-0.45c0.6-0.1,1.266-0.215,2-0.35c0.933,0.267,1.633,0.65,2.1,1.15c0.466,0.5,0.9,0.984,1.3,1.45
		c-0.067,0.667-0.117,1.334-0.15,2c-0.034,0.667-0.05,1.367-0.05,2.1c0,2.535,0.133,5.234,0.4,8.1c0.266,2.867,0.565,5.6,0.9,8.2
		c0.333,2.6,0.65,4.967,0.95,7.1c0.3,2.135,0.516,3.768,0.65,4.9V81.099z M48.5,24.799c0.333-0.333,0.933-0.5,1.8-0.5
		c0.666,0,1.35,0.117,2.05,0.35c0.7,0.234,1.35,0.567,1.95,1c0.6,0.435,1.083,0.917,1.45,1.45c0.365,0.534,0.55,1.1,0.55,1.7
		c0,1.268-0.317,2.117-0.95,2.55c-0.634,0.434-1.517,0.65-2.65,0.65c-0.734,0-1.484-0.116-2.25-0.35
		c-0.767-0.233-1.45-0.516-2.05-0.85c-0.6-0.333-1.084-0.683-1.45-1.05c-0.367-0.366-0.55-0.716-0.55-1.05c0-0.8,0.083-1.5,0.25-2.1
		C46.815,25.999,47.433,25.399,48.5,24.799z"/>
	<path d="M68.5,79.199c1.133-4,1.833-7.533,2.1-10.6c0.065-1.466,0.7-2.366,1.9-2.7c0.533-0.266,1.166-0.4,1.9-0.4
		c1.6,0,3.133,0.467,4.6,1.4c0.6,0.4,0.9,1.234,0.9,2.5c0,0.867-0.134,1.8-0.4,2.8c-0.935,4.2-1.667,7.434-2.2,9.7
		c-0.534,2.266-0.867,3.566-1,3.9c-1.334,5.133-2.934,9.433-4.8,12.9c-0.4,0.732-1.2,1.1-2.4,1.1c-0.6,0-1.25-0.067-1.95-0.2
		c-0.7-0.134-1.334-0.367-1.9-0.7c-0.567-0.334-1.05-0.734-1.45-1.2c-0.4-0.467-0.6-1.067-0.6-1.8c0-0.734,0.266-1.834,0.8-3.3
		c0.4-0.867,0.833-1.9,1.3-3.1L68.5,79.199z"/>
	<path d="M15.8,152.899c0.066,0.935,0.116,1.9,0.15,2.9c0.033,1,0.05,2.035,0.05,3.1c0,2.267-0.117,5.1-0.35,8.5
		c-0.234,3.4-0.584,7.4-1.05,12c-0.467,4.6-0.817,8.617-1.05,12.05c-0.234,3.434-0.35,6.317-0.35,8.65c0,0.867,0,1.717,0,2.55
		c0,0.834,0.033,1.683,0.1,2.55c-0.6,1.8-1.9,2.7-3.9,2.7c-2.867-0.134-4.434-1.367-4.7-3.7c-0.135-1.133-0.234-2.316-0.3-3.55
		c-0.067-1.233-0.1-2.516-0.1-3.85c0-2.266,0.133-5.065,0.4-8.4c0.266-3.333,0.666-7.3,1.2-11.9c0.533-4.6,0.95-8.55,1.25-11.85
		c0.3-3.3,0.45-6.083,0.45-8.35c0-0.865-0.017-1.715-0.05-2.55c-0.034-0.833-0.084-1.683-0.15-2.55c0.666-1.266,1.8-1.9,3.4-1.9
		c1.2,0,2.466,0.367,3.8,1.1c0.266-0.2,0.465-0.3,0.6-0.3c0.2,0,0.3,0.334,0.3,1c-0.067,0.267-0.1,0.6-0.1,1
		c0,0.267,0.033,0.4,0.1,0.4L15.8,152.899z"/>
	<path d="M39.3,136.599c0.732,0.334,1.2,0.767,1.4,1.3c0.333,1.2,0.5,2.334,0.5,3.4c0,2.135-0.7,4.8-2.1,8
		c-1,2.334-1.784,4.185-2.35,5.55c-0.567,1.367-0.917,2.317-1.05,2.85c-1.6,5.267-3.867,7.9-6.8,7.9c-0.6,0-1.134-0.1-1.6-0.3
		c-1.4-0.4-1.9-1.433-1.5-3.1c0.2-0.866,0.65-2.266,1.35-4.2c0.7-1.933,1.616-4.5,2.75-7.7c0.866-2.465,1.566-4.715,2.1-6.75
		c0.533-2.033,0.866-3.916,1-5.65c0.133-1.4,1.466-1.933,4-1.6L39.3,136.599z"/>
	<path d="M99.899,177.099c0,2.667,0.232,5.184,0.7,7.55c0.466,2.367,0.866,4.884,1.2,7.55c0.133,1.334,0.516,2.7,1.15,4.1
		c0.633,1.4,0.95,2.8,0.95,4.2c0,1.534-0.45,2.7-1.35,3.5s-1.984,1.2-3.25,1.2c-1.4,0-2.484-0.65-3.25-1.95
		c-0.767-1.3-1.334-2.8-1.7-4.5c-0.367-1.7-0.617-3.366-0.75-5c-0.134-1.633-0.3-2.783-0.5-3.45c-0.4-1.065-0.667-2.15-0.8-3.25
		c-0.134-1.1-0.25-2.183-0.35-3.25c-0.1-1.065-0.2-2.133-0.3-3.2c-0.1-1.066-0.317-2.166-0.65-3.3c-0.6,1.135-1.25,2.35-1.95,3.65
		c-0.7,1.3-1.4,2.634-2.1,4c-0.7,1.367-1.384,2.7-2.05,4c-0.667,1.3-1.234,2.484-1.7,3.55c-0.534,1.134-0.95,2.217-1.25,3.25
		c-0.3,1.034-0.584,2.05-0.85,3.05c-0.267,1-0.567,2-0.9,3c-0.334,1-0.8,2.066-1.4,3.2c-0.8,0.4-1.667,0.6-2.6,0.6
		c-1.267,0-2.25-0.467-2.95-1.4c-0.7-0.933-1.234-2.1-1.6-3.5c-0.367-1.4-0.635-2.866-0.8-4.4c-0.167-1.533-0.35-2.9-0.55-4.1
		c-0.134-1.266-0.317-2.633-0.55-4.1c-0.234-1.466-0.534-2.916-0.9-4.35c-0.367-1.433-0.767-2.783-1.2-4.05
		c-0.435-1.266-0.917-2.3-1.45-3.1c-0.935,0.734-1.75,1.767-2.45,3.1c-0.7,1.334-1.334,2.717-1.9,4.15
		c-0.567,1.434-1.05,2.834-1.45,4.2c-0.4,1.367-0.768,2.45-1.1,3.25c-0.867,1.535-1.45,3.084-1.75,4.65c-0.3,1.567-0.634,3-1,4.3
		c-0.367,1.3-0.935,2.367-1.7,3.2c-0.767,0.833-2.05,1.25-3.85,1.25c-0.534,0-1.05-0.185-1.55-0.55
		c-0.5-0.367-0.917-0.815-1.25-1.35c-0.334-0.533-0.6-1.1-0.8-1.7c-0.2-0.6-0.3-1.166-0.3-1.7c0.133-0.666,0.216-1.333,0.25-2
		c0.033-0.666,0.05-1.366,0.05-2.1c0-0.2,0.033-0.7,0.1-1.5c0.066-0.8,0.133-1.65,0.2-2.55c0.065-0.9,0.133-1.75,0.2-2.55
		c0.065-0.8,0.1-1.3,0.1-1.5c0-3.733-0.034-6.416-0.1-8.05c-0.067-1.633-0.135-2.75-0.2-3.35c-0.067-0.6-0.134-0.916-0.2-0.95
		c-0.067-0.033-0.1-0.316-0.1-0.85c0-0.733-0.117-1.433-0.35-2.1c-0.234-0.666-0.35-1.366-0.35-2.1c0-0.933,0.4-1.732,1.2-2.4
		c0.8-0.666,1.666-1,2.6-1c1.2,0,2.133,0.3,2.8,0.9c0.666,0.6,1.15,1.35,1.45,2.25c0.3,0.9,0.483,1.867,0.55,2.9
		c0.065,1.034,0.1,1.95,0.1,2.75c0,0.734-0.05,1.567-0.15,2.5c-0.1,0.934-0.15,1.8-0.15,2.6c0,0.4,0.066,0.935,0.2,1.6
		c0.4-0.866,0.85-1.833,1.35-2.9c0.5-1.065,1.033-2.15,1.6-3.25c0.566-1.1,1.15-2.15,1.75-3.15c0.6-1,1.2-1.866,1.8-2.6
		c0.8-1,1.733-2.05,2.8-3.15c1.066-1.1,2.266-1.65,3.6-1.65c1.466,0,2.6,0.334,3.4,1c0.8,0.667,1.4,1.5,1.8,2.5
		c0.4,1,0.683,2.117,0.85,3.35c0.166,1.234,0.383,2.385,0.65,3.45c0.6,1.935,1.15,4.1,1.65,6.5s0.983,4.567,1.45,6.5
		c0.133-0.466,0.35-1.083,0.65-1.85c0.3-0.766,0.615-1.565,0.95-2.4c0.333-0.833,0.666-1.6,1-2.3c0.333-0.7,0.6-1.25,0.8-1.65
		c0.6-1.266,1.283-2.65,2.05-4.15c0.766-1.5,1.666-2.9,2.7-4.2c1.033-1.3,2.232-2.416,3.6-3.35c1.366-0.933,2.95-1.466,4.75-1.6
		c0.8,0.4,1.533,0.717,2.2,0.95c0.666,0.234,1.233,0.6,1.7,1.1c0.465,0.5,0.833,1.25,1.1,2.25c0.266,1,0.4,2.435,0.4,4.3V177.099z"
		/>
	<path d="M137.098,153.499c-0.867-0.866-1.3-1.666-1.3-2.4c0-0.133,0.065-0.466,0.2-1c0.333-0.8,1.065-1.266,2.2-1.4l2.6-0.3
		c5.666,1.2,11.533,4.334,17.6,9.4c1.6,1.334,2.9,2.734,3.9,4.2c3.2,4.734,4.8,9.167,4.8,13.3c0,2.334-0.434,4.367-1.3,6.1
		c-0.334,0.734-0.65,1.5-0.95,2.3c-0.3,0.8-0.617,1.567-0.95,2.3c-0.667,1.534-1.535,2.967-2.6,4.3c-1.067,1.334-2.1,2.635-3.1,3.9
		c-1,1.267-2.034,2.534-3.1,3.8c-2.534,3-4.834,5.2-6.9,6.6c-0.667,0.8-1.384,1.6-2.15,2.4c-0.767,0.8-1.517,1.2-2.25,1.2
		c-0.467,0-1.234-0.185-2.3-0.55c-1.067-0.367-1.8-0.95-2.2-1.75c-0.2-2.8-0.3-5.8-0.3-9c0-1.666,0.033-3.7,0.1-6.1
		c0.066-2.4,0.166-5.232,0.3-8.5c0.133-3.266,0.233-6.1,0.3-8.5c0.066-2.4,0.1-4.433,0.1-6.1c0-2.133-0.05-4.2-0.15-6.2
		s-0.217-3.9-0.35-5.7L137.098,153.499z M147.498,194.999c7.533-7.533,11.3-14.7,11.3-21.5c0-0.466-0.017-0.933-0.05-1.4
		c-0.035-0.466-0.084-0.933-0.15-1.4c-0.6-4.2-4.167-7.9-10.7-11.1c-0.134,3.8-0.25,7.65-0.35,11.55s-0.15,7.95-0.15,12.15
		c0,1.935,0,3.867,0,5.8C147.398,191.033,147.431,192.999,147.498,194.999z"/>
	<path d="M206.498,201.699c0.2,0.534,0.4,1.084,0.6,1.65c0.2,0.565,0.3,1.116,0.3,1.65c0,0.533-0.15,0.966-0.45,1.3
		c-0.3,0.333-0.667,0.6-1.1,0.8c-0.434,0.2-0.884,0.35-1.35,0.45c-0.467,0.1-0.9,0.15-1.3,0.15c-1.334,0-2.435-0.75-3.3-2.25
		c-0.867-1.5-1.567-3.366-2.1-5.6c-0.535-2.233-0.984-4.6-1.35-7.1c-0.367-2.5-0.717-4.75-1.05-6.75c-0.2,1.4-0.85,3.167-1.95,5.3
		c-1.1,2.135-2.484,4.185-4.15,6.15c-1.667,1.967-3.5,3.65-5.5,5.05s-4,2.1-6,2.1c-1.6,0-2.917-0.317-3.95-0.95
		c-1.034-0.633-1.817-1.416-2.35-2.35c-0.534-0.933-0.9-1.982-1.1-3.15c-0.2-1.166-0.3-2.25-0.3-3.25c0-2.2,0.55-4.916,1.65-8.15
		c1.1-3.233,2.6-6.383,4.5-9.45c1.9-3.065,4.1-5.683,6.6-7.85c2.5-2.166,5.15-3.25,7.95-3.25c0.6,0,1.283,0.1,2.05,0.3
		c0.766,0.2,1.55,0.45,2.35,0.75s1.565,0.667,2.3,1.1c0.733,0.434,1.366,0.85,1.9,1.25c1.133,0.934,1.9,2.2,2.3,3.8s0.7,3.267,0.9,5
		c0.466,3.334,0.833,6.35,1.1,9.05c0.266,2.7,0.766,5.55,1.5,8.55l0.6,3.7L206.498,201.699z M178.298,196.499
		c0,0.067,0.016,0.117,0.05,0.15c0.033,0.035,0.05,0.084,0.05,0.15c0.865-0.065,1.865-0.65,3-1.75c1.133-1.1,2.266-2.416,3.4-3.95
		c1.133-1.533,2.183-3.15,3.15-4.85c0.966-1.7,1.683-3.216,2.15-4.55c0.266-0.6,0.583-1.266,0.95-2
		c0.366-0.733,0.733-1.483,1.1-2.25c0.365-0.766,0.666-1.483,0.9-2.15c0.233-0.666,0.35-1.232,0.35-1.7
		c-0.334-0.133-0.635-0.266-0.9-0.4c-0.267-0.133-0.567-0.2-0.9-0.2c-1.467,0-2.767,0.567-3.9,1.7c-1.134,1.134-2.117,2.4-2.95,3.8
		c-0.834,1.4-1.517,2.75-2.05,4.05c-0.534,1.3-0.9,2.117-1.1,2.45c-0.934,1.667-1.717,3.467-2.35,5.4
		c-0.634,1.935-0.95,3.8-0.95,5.6V196.499z"/>
	<path d="M221.897,189.299c0.933-0.933,1.683-2.133,2.25-3.6c0.566-1.466,1.116-2.866,1.65-4.2l0.2-0.6c0.4-1.065,1-2.383,1.8-3.95
		c0.8-1.566,1.733-3.066,2.8-4.5c1.066-1.433,2.233-2.65,3.5-3.65c1.266-1,2.566-1.5,3.9-1.5c1.133,0.334,1.982,0.867,2.55,1.6
		c0.565,0.734,1,1.55,1.3,2.45c0.301,0.9,0.566,1.834,0.801,2.8c0.232,0.967,0.55,1.884,0.949,2.75c0.866,1.935,1.516,4,1.95,6.2
		c0.433,2.2,0.8,4.434,1.101,6.7c0.3,2.268,0.649,4.5,1.05,6.7c0.399,2.2,1,4.234,1.8,6.1c-0.135,1.065-0.717,1.85-1.75,2.35
		c-1.034,0.5-1.95,0.75-2.75,0.75c-1.2,0-2.135-0.45-2.8-1.35c-0.667-0.9-1.185-2-1.55-3.3c-0.367-1.3-0.635-2.65-0.801-4.05
		c-0.167-1.4-0.384-2.565-0.649-3.5c-0.335-1.133-0.601-2.416-0.8-3.85c-0.2-1.433-0.435-2.883-0.7-4.35
		c-0.268-1.465-0.585-2.833-0.95-4.1c-0.367-1.266-0.885-2.3-1.55-3.1c-1.135,1.8-2.05,3.484-2.75,5.05
		c-0.7,1.567-1.335,3.067-1.9,4.5c-0.567,1.435-1.117,2.834-1.649,4.2c-0.535,1.367-1.2,2.75-2,4.15
		c-1.067,1.935-2.035,3.435-2.9,4.5c-0.867,1.067-1.667,1.85-2.4,2.35c-0.734,0.5-1.435,0.8-2.1,0.9c-0.667,0.1-1.3,0.15-1.9,0.15
		c-0.667,0-1.484-0.334-2.45-1c-0.967-0.666-1.45-1.465-1.45-2.4c0-4.2,0.016-8.1,0.05-11.7c0.033-3.6,0.05-7.4,0.05-11.4
		c0-1.133-0.034-2.283-0.1-3.45c-0.067-1.166-0.1-2.316-0.1-3.45c0-0.8,0.15-1.583,0.45-2.35c0.3-0.766,0.816-1.315,1.55-1.65
		c0.4,0,0.8-0.016,1.2-0.05c0.4-0.033,0.766-0.05,1.1-0.05c0.866,0,1.55,0.25,2.05,0.75s0.865,1.117,1.1,1.85
		c0.233,0.734,0.383,1.5,0.45,2.3c0.065,0.8,0.1,1.467,0.1,2c0,0.734,0.083,1.435,0.25,2.1c0.166,0.667,0.25,1.367,0.25,2.1
		c0,2.467-0.035,4.567-0.1,6.3c-0.067,1.734-0.1,3.4-0.1,5V189.299z"/>
	<path d="M254.498,186.899c0-2.465,0.315-4.95,0.949-7.45c0.633-2.5,1.583-4.75,2.851-6.75c1.266-2,2.833-3.616,4.7-4.85
		c1.865-1.233,4.032-1.85,6.5-1.85c1.732,0,3.25,0.267,4.55,0.8c1.3,0.535,2.383,1.234,3.25,2.1c0.865,0.867,1.516,1.85,1.95,2.95
		c0.433,1.1,0.649,2.25,0.649,3.45c0,1.535-0.284,3.018-0.85,4.45c-0.567,1.435-1.385,2.717-2.45,3.85
		c-1.067,1.134-2.385,2.05-3.95,2.75c-1.567,0.7-3.35,1.084-5.35,1.15c-0.867,0.067-1.635,0.034-2.3-0.1
		c-0.668-0.133-1.435-0.333-2.301-0.6c-0.066,0.334-0.1,0.617-0.1,0.85c0,0.234,0,0.417,0,0.55c0.065,2.467,0.466,4.4,1.2,5.8
		c0.732,1.4,1.532,2.45,2.399,3.15c0.866,0.7,1.7,1.15,2.5,1.35c0.801,0.2,1.333,0.3,1.601,0.3c2.065,0,3.782-0.465,5.149-1.4
		c1.366-0.933,2.883-1.965,4.551-3.1c0.332,0.135,0.699,0.285,1.1,0.45c0.4,0.167,0.766,0.484,1.1,0.95
		c0.066,0.4,0.133,0.717,0.2,0.95c0.065,0.234,0.101,0.584,0.101,1.05c-0.067,0.934-0.317,1.717-0.75,2.35
		c-0.435,0.635-0.918,1.185-1.45,1.65c-1.734,1.467-3.351,2.416-4.851,2.85c-1.5,0.433-3.449,0.65-5.85,0.65
		c-1.067,0-2.385-0.234-3.95-0.7c-1.567-0.467-2.884-0.967-3.95-1.5c-1.6-1.2-2.85-2.4-3.75-3.6c-0.899-1.2-1.6-2.465-2.1-3.8
		c-0.5-1.333-0.834-2.716-1-4.15C254.68,190.016,254.563,188.499,254.498,186.899z M263.197,181.499
		c0.266,0.067,0.684,0.117,1.25,0.15c0.566,0.035,1.016,0.05,1.351,0.05c2.266,0,4.016-0.566,5.25-1.7
		c1.232-1.133,1.85-2.5,1.85-4.1c0-0.933-0.267-1.8-0.8-2.6c-0.534-0.8-1.268-1.2-2.2-1.2c-0.667,0-1.317,0.067-1.95,0.2
		c-0.634,0.135-1.117,0.467-1.449,1c-0.268,0.334-0.567,0.667-0.9,1c-0.334,0.334-0.65,0.8-0.95,1.4c-0.3,0.6-0.584,1.35-0.85,2.25
		C263.53,178.849,263.33,180.033,263.197,181.499z"/>
</g>
</svg>
