<?xml version="1.0" encoding="utf-8"?>
<!-- Generator: Adobe Illustrator 23.0.1, SVG Export Plug-In . SVG Version: 6.00 Build 0)  -->
<svg version="1.1" id="myface" xmlns="http://www.w3.org/2000/svg" xmlns:xlink="http://www.w3.org/1999/xlink" x="0px" y="0px"
	 viewBox="0 0 996.231 126.099" style="enable-background:new 0 0 996.231 126.099;" xml:space="preserve">
<g>
	<path class="st0" d="M458.538,84.499c0,0.4-0.017,0.75-0.05,1.05c-0.034,0.301-0.084,0.583-0.15,0.85c-0.334,1-1,1.5-2,1.5
		c-1.935-0.066-3.517-0.884-4.75-2.449c-1.234-1.567-1.917-3.316-2.05-5.25c-0.2-2.466-0.3-5.066-0.3-7.8c0-4.4,0.3-11.366,0.9-20.9
		c0.266-4,0.466-7.583,0.6-10.75c0.133-3.166,0.2-5.916,0.2-8.25v-1.9h-1.3c-0.8,0-1.717,0.034-2.75,0.1
		c-1.034,0.067-2.184,0.2-3.45,0.4c-0.734,0.134-1.3,0.25-1.7,0.35c-0.4,0.1-0.967,0.15-1.7,0.15c-3.2,0-5.867-0.866-8-2.6
		c-0.8-1.666-1.2-2.565-1.2-2.7c0-0.533,0.234-1.033,0.7-1.5c1.066-0.333,2.3-0.65,3.7-0.95c1.4-0.3,3.133-0.55,5.2-0.75
		c5.6-0.6,9.933-1.666,13-3.2c2.533,0.734,5.2,1.1,8,1.1c2.8,0,5.666-0.366,8.6-1.1c0.4-0.065,1.033-0.215,1.9-0.45
		c0.865-0.233,1.766-0.483,2.7-0.75c1.6-0.466,3.166-0.7,4.7-0.7c0.2,0,0.416,0.017,0.65,0.05c0.233,0.035,0.45,0.05,0.65,0.05
		c1,0,1.5,0.367,1.5,1.1v0.4c1.8,0,2.7,0.6,2.7,1.8c-0.6,2.4-1.734,3.8-3.4,4.2c-2.135,0.534-4.85,1.117-8.15,1.75
		c-3.3,0.634-7.617,1.384-12.95,2.25c-0.667,8.4-1.167,16-1.5,22.8c-0.334,6.8-0.5,13.035-0.5,18.7c0,2.134,0.016,4.217,0.05,6.25
		c0.033,2.034,0.083,4.084,0.15,6.15V84.499z"/>
	<path class="st0" d="M494.637,70.299c0-3.8-0.084-7.732-0.25-11.8c-0.167-4.065-0.25-8.1-0.25-12.1c0-2.4,0.033-4.916,0.1-7.55
		c0.066-2.633,0.166-5.183,0.301-7.65c0.133-2.466,0.35-4.816,0.65-7.05c0.299-2.233,0.682-4.15,1.149-5.75
		c1.133-0.333,2.101-0.5,2.899-0.5c1.4,0,2.434,0.517,3.101,1.55c0.665,1.034,1,2.217,1,3.55c0,1.667-0.134,3.15-0.399,4.45
		c-0.268,1.3-0.436,2.684-0.5,4.15c-0.135,2.934-0.25,5.65-0.351,8.15s-0.167,4.917-0.2,7.25c-0.034,2.334-0.066,4.617-0.1,6.85
		c-0.035,2.234-0.051,4.517-0.051,6.85c0.733-1.8,1.566-3.533,2.5-5.2c0.934-1.666,1.916-3.15,2.951-4.45
		c1.032-1.3,2.133-2.333,3.299-3.1c1.166-0.766,2.316-1.15,3.451-1.15c1.799,0.135,3.282,0.785,4.449,1.95
		c1.166,1.167,2.083,2.55,2.75,4.15c0.666,1.6,1.133,3.234,1.4,4.9c0.266,1.667,0.4,3.035,0.4,4.1
		c0.266,1.067,0.449,2.285,0.549,3.65c0.101,1.367,0.217,2.617,0.351,3.75c0.266,2.2,0.733,4.45,1.399,6.75
		c0.666,2.3,1.066,4.417,1.201,6.35c-0.201,0.667-0.635,1.266-1.301,1.8c-0.667,0.533-1.268,0.8-1.8,0.8c-1.667,0-3-0.8-4-2.4
		s-1.767-3.45-2.3-5.55c-0.535-2.1-0.885-4.215-1.051-6.35c-0.166-2.133-0.25-3.7-0.25-4.7c0-0.8-0.084-1.8-0.25-3
		s-0.367-2.35-0.6-3.45c-0.234-1.1-0.484-2.033-0.75-2.8c-0.268-0.766-0.534-1.15-0.8-1.15c-0.8,0.267-1.567,0.9-2.3,1.9
		c-0.734,1-1.418,2.217-2.051,3.65c-0.634,1.435-1.217,2.95-1.75,4.55c-0.533,1.6-0.984,3.134-1.35,4.6
		c-0.367,1.467-0.667,2.768-0.9,3.9c-0.234,1.134-0.384,1.9-0.449,2.3v0.5c0,0.134-0.018,0.217-0.051,0.25
		c-0.033,0.034-0.049,0.117-0.049,0.25v0.4c-0.068,0.734-0.15,1.467-0.25,2.2c-0.101,0.734-0.25,1.417-0.451,2.05
		c-0.199,0.634-0.467,1.15-0.799,1.55c-0.335,0.4-0.734,0.6-1.201,0.6c-1.734,0-3.084-0.367-4.049-1.1
		c-0.968-0.733-1.686-1.683-2.15-2.85c-0.467-1.166-0.734-2.466-0.801-3.9c-0.066-1.433-0.1-2.883-0.1-4.35V70.299z"/>
	<path class="st0" d="M571.336,81.699c0.201,0.534,0.4,1.084,0.601,1.65c0.2,0.565,0.3,1.116,0.3,1.65c0,0.532-0.15,0.966-0.449,1.3
		c-0.301,0.333-0.668,0.6-1.101,0.801c-0.435,0.199-0.884,0.35-1.351,0.449s-0.899,0.15-1.299,0.15c-1.335,0-2.436-0.75-3.301-2.25
		c-0.867-1.5-1.566-3.366-2.1-5.6c-0.535-2.233-0.984-4.6-1.35-7.1c-0.367-2.5-0.718-4.75-1.051-6.75
		c-0.199,1.4-0.85,3.167-1.949,5.3c-1.101,2.135-2.484,4.185-4.15,6.15c-1.668,1.967-3.5,3.65-5.5,5.05s-4,2.1-6,2.1
		c-1.6,0-2.918-0.317-3.95-0.95c-1.034-0.633-1.817-1.416-2.351-2.35c-0.533-0.933-0.899-1.982-1.1-3.15
		c-0.199-1.166-0.3-2.25-0.3-3.25c0-2.2,0.55-4.916,1.649-8.15c1.101-3.233,2.601-6.383,4.5-9.45c1.9-3.065,4.101-5.683,6.601-7.85
		c2.5-2.166,5.149-3.25,7.95-3.25c0.6,0,1.283,0.1,2.05,0.3c0.766,0.2,1.55,0.45,2.351,0.75c0.799,0.3,1.564,0.667,2.299,1.1
		c0.733,0.434,1.366,0.85,1.9,1.25c1.133,0.934,1.9,2.2,2.301,3.8c0.399,1.6,0.699,3.267,0.899,5c0.466,3.334,0.833,6.35,1.101,9.05
		c0.266,2.7,0.766,5.55,1.5,8.55l0.6,3.7L571.336,81.699z M543.137,76.499c0,0.067,0.016,0.117,0.05,0.15
		c0.032,0.035,0.05,0.084,0.05,0.15c0.865-0.065,1.865-0.65,3-1.75c1.133-1.1,2.266-2.416,3.4-3.95
		c1.133-1.533,2.183-3.15,3.15-4.85c0.965-1.7,1.682-3.216,2.149-4.55c0.266-0.6,0.583-1.266,0.95-2
		c0.365-0.733,0.732-1.483,1.1-2.25c0.365-0.766,0.666-1.483,0.9-2.15c0.232-0.666,0.35-1.232,0.35-1.7
		c-0.334-0.133-0.635-0.266-0.9-0.4c-0.267-0.133-0.566-0.2-0.899-0.2c-1.468,0-2.767,0.567-3.899,1.7
		c-1.135,1.134-2.117,2.4-2.951,3.8s-1.517,2.75-2.049,4.05c-0.535,1.3-0.9,2.117-1.101,2.45c-0.935,1.667-1.718,3.467-2.351,5.4
		c-0.634,1.935-0.949,3.8-0.949,5.6V76.499z"/>
	<path class="st0" d="M588.938,19.899c0-0.8,0.1-1.666,0.3-2.6c0.532-0.266,0.966-0.482,1.3-0.65c0.333-0.166,0.766-0.25,1.301-0.25
		c1.133,0,2.049,0.2,2.75,0.6c0.699,0.4,1.232,0.9,1.6,1.5c0.365,0.6,0.615,1.284,0.75,2.05c0.133,0.768,0.199,1.518,0.199,2.25
		c0,1.4,0.033,2.617,0.101,3.65c0.065,1.034,0.101,2.05,0.101,3.05c0,1.067-0.018,2.117-0.051,3.15
		c-0.034,1.035-0.05,2.084-0.05,3.15c0,0.734-0.017,1.5-0.05,2.3c-0.035,0.8-0.051,1.634-0.051,2.5c0,0.4,0.033,0.767,0.101,1.1
		c0.065,0.334,0.366,0.5,0.899,0.5c1.733,0,3.25-0.283,4.551-0.85c1.3-0.566,2.815-0.85,4.55-0.85c0.933,0,1.565,0.367,1.899,1.1
		c0.334,0.734,0.5,1.467,0.5,2.2c0,0.867-0.199,1.55-0.6,2.05s-0.9,0.884-1.5,1.15c-0.6,0.267-1.25,0.484-1.949,0.65
		c-0.701,0.167-1.385,0.35-2.051,0.55c-0.6,0.267-1.316,0.517-2.15,0.75c-0.834,0.234-1.617,0.517-2.35,0.85
		c-0.734,0.334-1.367,0.768-1.9,1.3c-0.533,0.534-0.799,1.2-0.799,2c0,0.467,0.016,0.9,0.049,1.3s0.051,0.8,0.051,1.2
		s-0.018,0.817-0.051,1.25c-0.033,0.434-0.049,0.884-0.049,1.35c0,3,0.215,6.117,0.649,9.35c0.433,3.234,0.915,6.35,1.45,9.35
		c0.199,0.935,0.433,1.867,0.699,2.8c0.266,0.934,0.4,1.8,0.4,2.6c0,1.135-0.3,1.966-0.9,2.5c-0.6,0.533-1.267,0.9-2,1.1
		c-0.666,0.133-1.066,0.201-1.199,0.201c-0.935,0-1.785-0.318-2.551-0.951c-0.767-0.634-1.416-1.417-1.949-2.35
		c-0.334-0.933-0.617-2.2-0.85-3.8c-0.234-1.6-0.385-3.065-0.451-4.4c-0.199-3.266-0.334-6.516-0.399-9.75
		c-0.067-3.233-0.134-6.483-0.2-9.75c0-0.266-0.018-0.516-0.05-0.75c-0.034-0.233-0.117-0.483-0.25-0.75c-1.2,0.2-2.2,0.5-3,0.9
		s-1.734,0.6-2.8,0.6c-1.334,0-2.467-0.433-3.4-1.3c-0.934-0.865-1.635-1.565-2.1-2.1c0-0.733,0.166-1.666,0.5-2.8
		c0.865-0.333,1.666-0.565,2.4-0.7c0.732-0.133,1.449-0.266,2.149-0.4c0.7-0.133,1.415-0.3,2.149-0.5c0.733-0.2,1.533-0.533,2.4-1
		c1.066,0,1.684-0.416,1.85-1.25c0.166-0.833,0.25-1.55,0.25-2.15c0-1.2-0.017-2.215-0.049-3.05
		c-0.035-0.833-0.051-2.016-0.051-3.55c0-1-0.018-2.016-0.05-3.05c-0.034-1.033-0.05-2.05-0.05-3.05V19.899z"/>
	<path class="st0" d="M635.236,16.599c0.732,0.334,1.201,0.767,1.4,1.3c0.332,1.2,0.5,2.334,0.5,3.4c0,2.135-0.699,4.8-2.1,8
		c-1,2.334-1.785,4.185-2.35,5.55c-0.568,1.367-0.918,2.317-1.051,2.85c-1.6,5.267-3.867,7.9-6.801,7.9c-0.6,0-1.133-0.1-1.6-0.3
		c-1.4-0.4-1.9-1.433-1.5-3.1c0.201-0.866,0.65-2.266,1.35-4.2c0.701-1.933,1.617-4.5,2.75-7.7c0.867-2.465,1.566-4.715,2.102-6.75
		c0.531-2.033,0.865-3.916,1-5.65c0.133-1.4,1.465-1.933,4-1.6L635.236,16.599z"/>
	<path class="st0" d="M660.336,63.899c1.333,2.535,2.565,5.084,3.7,7.65c1.133,2.567,1.699,5.45,1.699,8.65c0,1.667-0.284,3.234-0.85,4.7
		c-0.567,1.466-1.35,2.765-2.35,3.9c-1,1.133-2.2,2.033-3.601,2.7c-1.399,0.665-2.899,1-4.5,1c-1.399,0-2.685-0.55-3.85-1.649
		c-1.167-1.101-1.817-2.351-1.95-3.75c0.266-0.535,0.516-0.918,0.75-1.15c0.232-0.234,0.75-0.45,1.55-0.65
		c0.8,0.801,1.601,1.2,2.4,1.2c1.133,0,2.133-0.5,3-1.5c0.865-1,1.3-2.266,1.3-3.8c0-0.533-0.034-0.866-0.1-1
		c-0.734-3-1.668-5.716-2.801-8.15c-1.134-2.433-2.25-4.715-3.35-6.85c-1.1-2.133-2.05-4.15-2.85-6.05
		c-0.801-1.9-1.2-3.815-1.2-5.75c0-1.6,0.133-3.25,0.399-4.95c0.266-1.7,0.733-3.283,1.4-4.75c0.666-1.466,1.55-2.666,2.65-3.6
		c1.1-0.933,2.516-1.4,4.25-1.4c0.199,0,0.383,0.017,0.55,0.05c0.165,0.034,0.35,0.05,0.55,0.05c0.666,0,1.232,0.35,1.7,1.05
		c0.466,0.7,0.8,1.317,1,1.85c0,0.534-0.185,0.95-0.55,1.25c-0.367,0.3-0.718,0.617-1.051,0.95c-0.8,1.067-1.384,2.25-1.75,3.55
		c-0.367,1.3-0.55,2.617-0.55,3.95v2.4c0,0.467,0.166,1.135,0.5,2c0.333,0.867,0.716,1.785,1.15,2.75
		c0.433,0.967,0.865,1.867,1.3,2.7c0.433,0.834,0.783,1.45,1.05,1.85L660.336,63.899z"/>
	<path class="st0" d="M760.035,57.099c0,2.667,0.232,5.184,0.7,7.55c0.465,2.367,0.865,4.884,1.199,7.55c0.133,1.334,0.516,2.7,1.15,4.1
		c0.633,1.4,0.95,2.8,0.95,4.2c0,1.534-0.45,2.7-1.351,3.5c-0.899,0.8-1.984,1.2-3.25,1.2c-1.399,0-2.484-0.65-3.25-1.95
		c-0.767-1.3-1.334-2.8-1.699-4.5c-0.367-1.7-0.617-3.366-0.75-5c-0.135-1.633-0.301-2.783-0.5-3.45
		c-0.4-1.065-0.668-2.15-0.801-3.25c-0.134-1.1-0.25-2.183-0.35-3.25c-0.1-1.065-0.2-2.133-0.3-3.2
		c-0.101-1.066-0.317-2.166-0.65-3.3c-0.6,1.135-1.25,2.35-1.95,3.65c-0.699,1.3-1.399,2.634-2.1,4c-0.7,1.367-1.385,2.7-2.05,4
		c-0.667,1.3-1.234,2.484-1.7,3.55c-0.534,1.134-0.95,2.217-1.25,3.25c-0.3,1.034-0.584,2.05-0.85,3.05c-0.268,1-0.567,2-0.9,3
		c-0.334,1-0.8,2.066-1.4,3.2c-0.8,0.399-1.667,0.601-2.6,0.601c-1.268,0-2.25-0.468-2.95-1.4c-0.7-0.933-1.234-2.1-1.6-3.5
		c-0.367-1.4-0.635-2.866-0.8-4.4c-0.168-1.533-0.351-2.9-0.551-4.1c-0.134-1.266-0.316-2.633-0.55-4.1
		c-0.234-1.466-0.534-2.916-0.899-4.35c-0.367-1.433-0.768-2.783-1.2-4.05c-0.435-1.266-0.917-2.3-1.45-3.1
		c-0.935,0.734-1.75,1.767-2.45,3.1c-0.7,1.334-1.334,2.717-1.899,4.15c-0.567,1.434-1.051,2.834-1.45,4.2
		c-0.4,1.367-0.768,2.45-1.101,3.25c-0.867,1.535-1.449,3.084-1.75,4.65c-0.3,1.567-0.634,3-1,4.3c-0.367,1.3-0.934,2.367-1.699,3.2
		c-0.768,0.833-2.051,1.25-3.851,1.25c-0.534,0-1.05-0.185-1.55-0.55c-0.5-0.367-0.917-0.815-1.25-1.35
		c-0.334-0.533-0.6-1.1-0.8-1.7s-0.3-1.166-0.3-1.7c0.133-0.666,0.215-1.333,0.25-2c0.032-0.666,0.05-1.366,0.05-2.1
		c0-0.2,0.032-0.7,0.1-1.5c0.065-0.8,0.133-1.65,0.2-2.55c0.065-0.9,0.133-1.75,0.2-2.55c0.065-0.8,0.1-1.3,0.1-1.5
		c0-3.733-0.034-6.416-0.1-8.05c-0.067-1.633-0.135-2.75-0.2-3.35c-0.067-0.6-0.135-0.916-0.2-0.95c-0.067-0.033-0.1-0.316-0.1-0.85
		c0-0.733-0.117-1.433-0.351-2.1c-0.234-0.666-0.35-1.366-0.35-2.1c0-0.933,0.4-1.732,1.2-2.4c0.8-0.666,1.665-1,2.6-1
		c1.2,0,2.133,0.3,2.8,0.9c0.666,0.6,1.15,1.35,1.45,2.25c0.3,0.9,0.483,1.867,0.55,2.9c0.066,1.034,0.101,1.95,0.101,2.75
		c0,0.734-0.05,1.567-0.15,2.5c-0.1,0.934-0.149,1.8-0.149,2.6c0,0.4,0.065,0.935,0.199,1.6c0.4-0.866,0.851-1.833,1.351-2.9
		c0.5-1.065,1.032-2.15,1.6-3.25c0.565-1.1,1.15-2.15,1.75-3.15c0.601-1,1.2-1.866,1.8-2.6c0.801-1,1.733-2.05,2.801-3.15
		c1.065-1.1,2.266-1.65,3.6-1.65c1.466,0,2.6,0.334,3.4,1c0.8,0.667,1.399,1.5,1.8,2.5c0.399,1,0.683,2.117,0.85,3.35
		c0.166,1.234,0.383,2.385,0.65,3.45c0.6,1.935,1.149,4.1,1.649,6.5s0.983,4.567,1.45,6.5c0.133-0.466,0.351-1.083,0.65-1.85
		c0.3-0.766,0.615-1.565,0.95-2.4c0.332-0.833,0.665-1.6,1-2.3c0.332-0.7,0.6-1.25,0.8-1.65c0.6-1.266,1.282-2.65,2.05-4.15
		c0.766-1.5,1.666-2.9,2.7-4.2c1.032-1.3,2.232-2.416,3.6-3.35c1.366-0.933,2.95-1.466,4.75-1.6c0.8,0.4,1.533,0.717,2.2,0.95
		c0.666,0.234,1.232,0.6,1.7,1.1c0.466,0.5,0.833,1.25,1.1,2.25c0.266,1,0.4,2.435,0.4,4.3V57.099z"/>
	<path class="st0" d="M784.334,63.699c0,0.934,0.016,2.067,0.05,3.4c0.032,1.334,0.149,2.684,0.35,4.05c0.2,1.367,0.483,2.6,0.851,3.7
		c0.365,1.1,0.883,1.884,1.55,2.35c1.333-0.466,2.466-1.383,3.399-2.75c0.934-1.366,1.733-2.883,2.4-4.55
		c0.666-1.666,1.232-3.35,1.7-5.05c0.466-1.7,0.865-3.116,1.2-4.25c0.199-1.333,0.332-2.883,0.399-4.65
		c0.065-1.766,0.216-3.433,0.45-5c0.232-1.566,0.615-2.883,1.15-3.95c0.532-1.065,1.365-1.6,2.5-1.6c1.133,0,2.199,0.3,3.199,0.9
		c1,0.6,1.601,1.467,1.801,2.6c-0.268,3.8-0.45,7.084-0.551,9.85c-0.1,2.767-0.149,5.05-0.149,6.85c0,0.6,0.016,1.4,0.05,2.4
		c0.033,1,0.083,2.084,0.15,3.25c0.065,1.167,0.115,2.367,0.149,3.6c0.033,1.234,0.05,2.384,0.05,3.45c0,7.066-0.85,13.4-2.55,19
		s-4.55,10.732-8.55,15.4c-0.6,0.465-1.234,0.965-1.9,1.5c-0.667,0.533-1.434,1.033-2.3,1.5c-0.867,0.465-1.884,0.865-3.05,1.199
		c-1.167,0.334-2.518,0.5-4.05,0.5c-0.4,0-0.885-0.084-1.45-0.25c-0.567-0.166-1.1-0.416-1.6-0.75s-0.918-0.75-1.25-1.25
		c-0.335-0.5-0.5-1.049-0.5-1.649c0-0.399,0.433-0.817,1.3-1.25c0.865-0.435,1.899-0.917,3.1-1.45c1.2-0.534,2.416-1.135,3.65-1.8
		c1.232-0.667,2.25-1.468,3.05-2.399c3-4,5.1-8.085,6.3-12.25c1.2-4.168,1.8-8.65,1.8-13.451c0-0.533,0-1.016,0-1.45
		c0-0.433,0.033-0.883,0.101-1.35c-0.067-0.066-0.234-0.1-0.5-0.1c-0.4,0.935-0.968,1.834-1.7,2.7c-0.734,0.867-1.55,1.667-2.45,2.4
		c-0.899,0.733-1.817,1.315-2.75,1.75c-0.935,0.432-1.8,0.65-2.6,0.65c-2.468,0-4.435-0.8-5.9-2.4c-1.467-1.6-2.584-3.533-3.35-5.8
		c-0.768-2.266-1.268-4.633-1.5-7.1c-0.234-2.466-0.351-4.566-0.351-6.3c0-0.4,0.016-0.8,0.051-1.2c0.032-0.4,0.05-0.8,0.05-1.2
		c0-1.133-0.034-2.216-0.101-3.25c-0.066-1.033-0.1-2.116-0.1-3.25c0-0.8,0.033-1.716,0.1-2.75c0.066-1.033,0.233-2.016,0.5-2.95
		c0.266-0.933,0.616-1.715,1.051-2.35c0.433-0.633,1.016-0.95,1.75-0.95c1.532,0,2.633,0.3,3.3,0.9c0.665,0.6,1.1,1.35,1.3,2.25
		s0.3,1.884,0.3,2.95c0,1.067,0.101,2.034,0.3,2.9c-0.066,0.935-0.117,2.117-0.149,3.55c-0.034,1.435-0.05,2.584-0.05,3.45V63.699z"
		/>
	<path class="st0" d="M854.034,98.6c0-1.867-0.084-3.65-0.25-5.351c-0.167-1.7-0.25-3.417-0.25-5.149c0-1.335,0.016-2.75,0.05-4.25
		c0.033-1.5,0.05-2.916,0.05-4.25v-1.9c-0.399,0.067-0.767,0.117-1.1,0.15c-0.334,0.034-0.667,0.05-1,0.05
		c-1.867,0-3.268-0.4-4.2-1.2c-0.935-0.8-1.399-1.833-1.399-3.1c0-0.6,0.282-1.066,0.85-1.4c0.565-0.333,1.232-0.6,2-0.8
		c0.766-0.2,1.565-0.366,2.4-0.5c0.832-0.133,1.55-0.3,2.149-0.5c0.133-5.666,0.351-11.033,0.65-16.1c0.3-5.065,0.45-9.4,0.45-13
		c0-1.6,0.065-3.416,0.199-5.45c0.133-2.033,0.333-4.016,0.601-5.95c0.266-1.933,0.615-3.7,1.05-5.3c0.433-1.6,0.982-2.8,1.65-3.6
		l0.399-0.5c0.601-0.733,1.266-1.45,2-2.15c0.733-0.7,1.666-1.05,2.8-1.05c0.333,0,0.75,0.117,1.25,0.35c0.5,0.234,1,0.5,1.5,0.8
		c0.5,0.3,0.916,0.634,1.25,1c0.333,0.367,0.5,0.684,0.5,0.95c0,0.667-0.066,1.185-0.199,1.55c-0.135,0.367-0.301,0.684-0.5,0.95
		c-0.2,0.267-0.435,0.517-0.7,0.75c-0.268,0.234-0.534,0.517-0.8,0.85c-0.4,0.534-0.75,1.217-1.051,2.05
		c-0.3,0.834-0.534,1.667-0.699,2.5c-0.168,0.834-0.301,1.617-0.4,2.35c-0.1,0.734-0.15,1.3-0.15,1.7
		c-0.267,3.134-0.517,5.967-0.75,8.5c-0.234,2.534-0.417,4.95-0.55,7.25c-0.134,2.3-0.25,4.567-0.35,6.8
		c-0.101,2.234-0.15,4.55-0.15,6.95c0,0.467-0.017,1.05-0.05,1.75c-0.034,0.7-0.05,1.25-0.05,1.65c0,0.867,0.083,1.384,0.25,1.55
		c0.165,0.167,0.683,0.25,1.55,0.25c0.666,0,1.45-0.083,2.35-0.25c0.9-0.166,1.801-0.365,2.7-0.6c0.9-0.233,1.733-0.433,2.5-0.6
		c0.766-0.166,1.351-0.25,1.75-0.25c1.2,0,1.95,0.25,2.25,0.75s0.516,1.184,0.65,2.05c-0.2,1.267-1.018,2.234-2.45,2.9
		c-1.435,0.667-2.95,1.25-4.55,1.75c-1.601,0.5-3.067,1.05-4.4,1.65c-1.334,0.6-2,1.467-2,2.6c0,3.535,0.083,7.15,0.25,10.85
		c0.166,3.701,0.333,7.166,0.5,10.4c0.166,3.232,0.333,6.1,0.5,8.6c0.166,2.5,0.25,4.351,0.25,5.551c0,1.4-0.399,2.25-1.2,2.55
		c-0.8,0.3-1.634,0.45-2.5,0.45c-1.399,0-2.467-0.6-3.199-1.801c-0.734-1.199-1.285-2.649-1.65-4.35
		c-0.367-1.699-0.584-3.467-0.65-5.3c-0.066-1.835-0.1-3.417-0.1-4.75V98.6z"/>
	<path class="st0" d="M919.032,81.699c0.2,0.534,0.4,1.084,0.601,1.65c0.199,0.565,0.3,1.116,0.3,1.65c0,0.532-0.15,0.966-0.45,1.3
		c-0.3,0.333-0.667,0.6-1.1,0.801c-0.435,0.199-0.885,0.35-1.351,0.449c-0.467,0.1-0.899,0.15-1.3,0.15
		c-1.334,0-2.435-0.75-3.3-2.25c-0.867-1.5-1.567-3.366-2.101-5.6c-0.534-2.233-0.984-4.6-1.35-7.1c-0.367-2.5-0.717-4.75-1.05-6.75
		c-0.2,1.4-0.851,3.167-1.95,5.3c-1.1,2.135-2.484,4.185-4.15,6.15c-1.667,1.967-3.5,3.65-5.5,5.05s-4,2.1-6,2.1
		c-1.6,0-2.917-0.317-3.949-0.95c-1.035-0.633-1.817-1.416-2.351-2.35c-0.534-0.933-0.899-1.982-1.1-3.15
		c-0.2-1.166-0.3-2.25-0.3-3.25c0-2.2,0.55-4.916,1.649-8.15c1.101-3.233,2.601-6.383,4.5-9.45c1.9-3.065,4.101-5.683,6.601-7.85
		c2.5-2.166,5.149-3.25,7.949-3.25c0.601,0,1.283,0.1,2.051,0.3c0.766,0.2,1.55,0.45,2.35,0.75s1.565,0.667,2.3,1.1
		c0.733,0.434,1.366,0.85,1.9,1.25c1.133,0.934,1.899,2.2,2.3,3.8s0.7,3.267,0.9,5c0.465,3.334,0.832,6.35,1.1,9.05
		c0.266,2.7,0.766,5.55,1.5,8.55l0.6,3.7L919.032,81.699z M890.832,76.499c0,0.067,0.016,0.117,0.051,0.15
		c0.032,0.035,0.05,0.084,0.05,0.15c0.865-0.065,1.865-0.65,3-1.75c1.133-1.1,2.266-2.416,3.399-3.95
		c1.133-1.533,2.184-3.15,3.15-4.85c0.966-1.7,1.683-3.216,2.15-4.55c0.266-0.6,0.582-1.266,0.949-2
		c0.366-0.733,0.733-1.483,1.101-2.25c0.365-0.766,0.665-1.483,0.899-2.15c0.233-0.666,0.351-1.232,0.351-1.7
		c-0.335-0.133-0.635-0.266-0.9-0.4c-0.267-0.133-0.567-0.2-0.899-0.2c-1.468,0-2.768,0.567-3.9,1.7
		c-1.135,1.134-2.117,2.4-2.95,3.8c-0.834,1.4-1.517,2.75-2.05,4.05c-0.534,1.3-0.9,2.117-1.1,2.45
		c-0.935,1.667-1.718,3.467-2.351,5.4c-0.634,1.935-0.95,3.8-0.95,5.6V76.499z"/>
	<path class="st0" d="M949.032,78.299c0.8,0,1.45,0.268,1.95,0.8c0.5,0.534,0.75,1.2,0.75,2c0,0.667-0.185,1.2-0.55,1.6
		c-0.367,0.4-0.851,0.7-1.45,0.9c-0.601,0.2-1.284,0.35-2.05,0.45c-0.768,0.1-1.518,0.183-2.25,0.25
		c-1.135-0.334-2.218-0.634-3.25-0.9c-1.035-0.266-2.085-0.766-3.15-1.5c-1.667-1.4-3.284-2.9-4.85-4.5
		c-1.567-1.6-2.785-3.433-3.65-5.5c-0.334-0.4-0.617-0.933-0.85-1.6c-0.234-0.666-0.435-1.35-0.601-2.05
		c-0.167-0.7-0.284-1.366-0.35-2c-0.067-0.633-0.101-1.15-0.101-1.55c0-1.333,0.15-2.733,0.45-4.2c0.3-1.466,0.75-2.9,1.351-4.3
		c0.6-1.4,1.332-2.683,2.199-3.85c0.866-1.166,1.9-2.15,3.101-2.95l3.8-1.7c0.933-0.266,1.865-0.566,2.8-0.9
		c0.933-0.333,1.933-0.5,3-0.5c1.533,0.135,2.601,0.417,3.2,0.85c0.6,0.435,1.1,1.417,1.5,2.95c-0.067,0.334-0.268,0.8-0.6,1.4
		c-0.335,0.6-0.835,1-1.5,1.2c-0.734,0.334-1.45,0.534-2.15,0.6c-0.7,0.067-1.385,0.268-2.05,0.6c-1.135,0.535-2.034,1.067-2.7,1.6
		c-0.667,0.534-1.2,1-1.6,1.4c-0.468,0.467-0.801,0.935-1,1.4c-0.535,0.734-0.867,1.567-1,2.5c-0.135,0.935-0.2,1.768-0.2,2.5
		c0,1.4,0.216,2.8,0.649,4.2s0.983,2.717,1.65,3.95c0.666,1.234,1.416,2.3,2.25,3.2c0.833,0.9,1.615,1.55,2.35,1.95
		c1.133,1.134,2.333,1.7,3.601,1.7H949.032z"/>
	<path class="st0" d="M962.332,66.899c0-2.465,0.315-4.95,0.949-7.45c0.633-2.5,1.583-4.75,2.851-6.75c1.266-2,2.833-3.616,4.7-4.85
		c1.865-1.233,4.032-1.85,6.5-1.85c1.732,0,3.25,0.267,4.55,0.8c1.3,0.535,2.383,1.234,3.25,2.1c0.865,0.867,1.516,1.85,1.95,2.95
		c0.433,1.1,0.649,2.25,0.649,3.45c0,1.535-0.284,3.018-0.85,4.45c-0.567,1.435-1.385,2.717-2.45,3.85
		c-1.067,1.134-2.385,2.05-3.95,2.75c-1.567,0.7-3.35,1.084-5.35,1.15c-0.867,0.067-1.635,0.034-2.3-0.1
		c-0.668-0.133-1.435-0.333-2.301-0.6c-0.066,0.334-0.1,0.617-0.1,0.85c0,0.234,0,0.417,0,0.55c0.065,2.467,0.466,4.4,1.2,5.8
		c0.732,1.4,1.532,2.45,2.399,3.15c0.866,0.7,1.7,1.15,2.5,1.35c0.801,0.2,1.333,0.3,1.601,0.3c2.065,0,3.782-0.465,5.149-1.4
		c1.366-0.933,2.883-1.965,4.551-3.1c0.332,0.135,0.699,0.285,1.1,0.45c0.4,0.167,0.766,0.484,1.1,0.95
		c0.066,0.4,0.133,0.717,0.2,0.95c0.065,0.234,0.101,0.584,0.101,1.05c-0.067,0.934-0.317,1.717-0.75,2.35
		c-0.435,0.635-0.918,1.185-1.45,1.65c-1.734,1.467-3.351,2.416-4.851,2.85c-1.5,0.434-3.449,0.65-5.85,0.65
		c-1.067,0-2.385-0.234-3.95-0.7c-1.567-0.467-2.884-0.967-3.95-1.5c-1.6-1.2-2.85-2.4-3.75-3.6c-0.899-1.2-1.6-2.465-2.1-3.8
		c-0.5-1.333-0.834-2.716-1-4.15C962.515,70.016,962.397,68.499,962.332,66.899z M971.031,61.499c0.266,0.067,0.684,0.117,1.25,0.15
		c0.566,0.035,1.016,0.05,1.351,0.05c2.266,0,4.016-0.566,5.25-1.7c1.232-1.133,1.85-2.5,1.85-4.1c0-0.933-0.267-1.8-0.8-2.6
		c-0.534-0.8-1.268-1.2-2.2-1.2c-0.667,0-1.317,0.067-1.95,0.2c-0.634,0.135-1.117,0.467-1.449,1c-0.268,0.334-0.567,0.667-0.9,1
		c-0.334,0.334-0.65,0.8-0.95,1.4c-0.3,0.6-0.584,1.35-0.85,2.25C971.364,58.849,971.164,60.033,971.031,61.499z"/>
</g>
<g>
	<path class="st0" d="M382.221,47.955c-2.994-1.527-6.321-2.16-9.577-2.842c-3.264-0.686-6.578-1.157-9.879-1.625
		c-3.33-0.36-6.619-0.863-9.957-1.134l-4.986-0.481c-1.661-0.16-3.336-0.245-5.002-0.37c-6.655-0.562-13.345-0.863-20.012-1.273
		c-6.693-0.23-13.356-0.655-20.052-0.8c-26.745-0.896-53.532-1.201-80.32-1.472c-26.675-0.218-53.334,0.721-79.849,3.352
		c-13.25,1.334-26.484,3.031-39.592,5.504c-3.278,0.609-6.541,1.293-9.82,1.942c-3.238,0.78-6.515,1.471-9.747,2.308l-4.858,1.254
		l-4.822,1.396c-3.198,0.984-6.406,1.982-9.527,3.243c5.804-3.445,12.055-6.126,18.368-8.535c1.571-0.64,3.162-1.211,4.765-1.75
		l4.803-1.655c3.231-0.993,6.461-2.024,9.712-2.982c13.028-3.748,26.338-6.405,39.714-8.523c26.779-4.143,53.898-5.788,80.932-5.55
		c26.923,0.284,53.855,1.275,80.73,3.648l5.037,0.44l5.034,0.542l10.059,1.119c6.698,0.896,13.39,1.759,20.052,2.947
		c1.664,0.298,3.331,0.555,4.991,0.888l4.976,0.999c3.318,0.624,6.618,1.434,9.9,2.24c3.273,0.889,6.543,1.763,9.749,2.881
		c1.611,0.511,3.179,1.203,4.747,1.825C379.321,46.213,380.906,46.875,382.221,47.955z"/>
</g>
<g>
	<polygon points="67.756,22.491 6.97,79.705 5.554,75.503 86.221,88.955 4.888,80.407 0,79.893 3.471,76.205 60.685,15.42 	"/>
</g>
</svg>
