<?xml version="1.0" encoding="utf-8"?>
<!-- Generator: Adobe Illustrator 23.0.1, SVG Export Plug-In . SVG Version: 6.00 Build 0)  -->
<svg version="1.1" id="Layer_1" xmlns="http://www.w3.org/2000/svg" xmlns:xlink="http://www.w3.org/1999/xlink" x="0px" y="0px"
	 viewBox="0 0 281.766 265.86" style="enable-background:new 0 0 281.766 265.86;" xml:space="preserve">
<style type="text/css">
	#layer_1{}
	.st0{font-family:'Verveine-Regular';}
	.st1{font-size:78.8979px;}
	.st2{letter-spacing:3;}
	.st3{fill:none;stroke:#3E8989;stroke-miterlimit:10;}
</style>
<text transform="matrix(1 0 0 1 37.1875 65.8789)" class="st0 st1 st2">My skills</text>
<g>
	<path d="M167.697,89.198c-2.001,8.427-4.641,16.657-7.599,24.785c-2.969,8.122-6.252,16.14-9.856,24.022
		c-3.585,7.892-7.554,15.614-11.789,23.198c-4.223,7.592-8.806,14.993-13.688,22.202c-2.439,3.604-4.968,7.16-7.525,10.679
		c-2.555,3.517-5.118,7.039-7.758,10.515c-5.255,6.966-10.823,13.772-17.217,19.835c-6.377,6.065-13.309,11.644-20.911,16.288
		c-3.797,2.321-7.808,4.34-11.964,5.996c-2.084,0.821-4.235,1.491-6.408,2.042c-2.198,0.502-4.395,0.909-6.728,0.81l-0.08-0.997
		c0.946-0.334,1.939-0.777,2.87-1.252c0.945-0.459,1.867-0.971,2.769-1.511c1.822-1.042,3.56-2.224,5.278-3.415
		c3.42-2.421,6.665-5.061,9.833-7.788c6.335-5.462,12.24-11.422,18.072-17.469l8.737-9.131l2.199-2.283l2.177-2.313
		c1.471-1.524,2.9-3.094,4.333-4.66c5.746-6.265,11.149-12.871,16.225-19.679c10.149-13.645,19.342-28.065,27.429-43.129
		c8.094-15.047,15.21-30.731,20.634-46.997L167.697,89.198z"/>
</g>
<g>
	<polygon points="43.873,214.346 8.302,264.298 5.713,259.461 106.713,262.572 5.713,265.684 0,265.86 3.124,260.846
		35.553,208.799 	"/>
</g>
<path class="st3" d="M148.713,228.572"/>
</svg>
