<?xml version="1.0" encoding="utf-8"?>
<!-- Generator: Adobe Illustrator 23.0.1, SVG Export Plug-In . SVG Version: 6.00 Build 0)  -->
<svg version="1.1" id="Layer_1" xmlns="http://www.w3.org/2000/svg" xmlns:xlink="http://www.w3.org/1999/xlink" x="0px" y="0px"
	 viewBox="0 0 281.766 265.86" style="enable-background:new 0 0 281.766 265.86;" xml:space="preserve">
<style type="text/css">
	.st0{fill:none;stroke:#000000;stroke-miterlimit:10;}
</style>
<g>
	<path d="M59.752,64.695c-1.263-0.263-2.223-0.75-2.88-1.459c-0.658-0.71-1.329-1.643-2.012-2.801
		c-0.422-0.736-0.842-1.683-1.263-2.84c-0.421-1.156-0.842-2.551-1.262-4.182c-0.422-1.841-0.842-3.681-1.262-5.523
		c-0.422-1.84-0.737-3.235-0.947-4.182c-0.58,2.789-1.184,5.511-1.815,8.166c-0.631,2.657-1.262,5.168-1.894,7.535
		c-0.631,2.367-1.262,4.537-1.894,6.509c-0.631,1.972-1.262,3.642-1.894,5.01c-0.158,0.368-0.5,0.552-1.025,0.552
		c-0.58,0-1.341-0.236-2.288-0.71c-0.737-0.369-1.25-0.816-1.539-1.341c-0.29-0.526-0.434-1.131-0.434-1.814
		c0-0.422,0.552-2.103,1.657-5.049c0.263-0.631,0.841-2.446,1.736-5.444c0.894-2.998,2.156-7.258,3.787-12.781
		c0.578-1.894,1.156-4.497,1.736-7.811c0.578-3.313,1.156-7.363,1.736-12.15c0.104-0.104,0.367-0.657,0.789-1.657
		c0.262-0.736,0.736-1.104,1.42-1.104c1.945,0,3.261,0.343,3.945,1.026c0,0.737,0,1.735,0,2.998c0,1.262,0.105,2.735,0.316,4.418
		c0.209,1.684,0.367,3.156,0.473,4.418c0.105,1.262,0.158,2.341,0.158,3.235c0.158,1.894,0.42,3.485,0.789,4.773
		c0.367,1.29,0.683,2.67,0.947,4.142c0.578,3.524,1.604,6.339,3.077,8.442c2.524-7.048,4.588-13.346,6.193-18.896
		c1.604-5.549,2.748-10.401,3.432-14.557c0.209-0.841,0.999-1.262,2.367-1.262c1.945,0,3.05,0.631,3.314,1.894
		c0.367,1.684,0.552,3.866,0.552,6.548c0,0.422-0.014,1.053-0.04,1.894c-0.027,0.842-0.066,1.947-0.118,3.314
		c-0.053,0.579-0.079,1.104-0.079,1.578c0,0.474,0,0.921,0,1.341c0,0.422,0,0.842,0,1.262c0,0.422,0.026,0.789,0.079,1.105
		c0.473,11.151,1.499,20.461,3.077,27.93c0,0.105,0.012,0.17,0.039,0.197c0.026,0.026,0.04,0.065,0.04,0.118
		c0,0.894-0.868,1.367-2.604,1.42c-1.053,0-2.157-0.5-3.314-1.499c-1.053-0.895-1.842-2.34-2.367-4.339
		c-0.58-1.788-0.895-4.391-0.947-7.811c0-0.947,0-2.024,0-3.235c0-1.209-0.014-2.379-0.04-3.511
		c-0.027-1.131-0.053-2.156-0.079-3.077c-0.027-0.92-0.067-1.59-0.119-2.012c-0.158,0.58-0.421,1.448-0.789,2.604
		c-0.369,1.157-0.776,2.434-1.223,3.826c-0.448,1.395-0.907,2.814-1.381,4.261c-0.473,1.447-0.895,2.749-1.262,3.905
		c-0.947,2.578-1.526,4.051-1.736,4.418c-0.789,1.473-1.736,2.209-2.84,2.209H59.752z"/>
	<path d="M95.098,50.257c0,0.737,0.013,1.631,0.04,2.682c0.026,1.053,0.118,2.118,0.276,3.196c0.158,1.079,0.381,2.051,0.67,2.919
		c0.289,0.868,0.697,1.487,1.223,1.854c1.051-0.367,1.945-1.091,2.682-2.169c0.736-1.078,1.367-2.274,1.894-3.59
		c0.525-1.314,0.973-2.643,1.341-3.984c0.368-1.341,0.683-2.458,0.947-3.353c0.158-1.052,0.263-2.275,0.316-3.669
		c0.052-1.393,0.17-2.708,0.355-3.945c0.184-1.235,0.485-2.274,0.907-3.117c0.42-0.841,1.078-1.262,1.973-1.262
		c0.894,0,1.735,0.237,2.524,0.71c0.789,0.474,1.262,1.158,1.42,2.051c-0.211,2.998-0.355,5.589-0.434,7.771
		c-0.079,2.184-0.118,3.984-0.118,5.405c0,0.473,0.012,1.104,0.039,1.894c0.026,0.789,0.065,1.645,0.119,2.564
		c0.052,0.921,0.091,1.868,0.118,2.84c0.026,0.974,0.04,1.881,0.04,2.722c0,5.575-0.671,10.572-2.012,14.99
		c-1.341,4.418-3.59,8.468-6.746,12.15c-0.473,0.368-0.974,0.762-1.499,1.184c-0.526,0.42-1.132,0.815-1.814,1.184
		c-0.684,0.367-1.487,0.683-2.407,0.947c-0.921,0.262-1.986,0.395-3.195,0.395c-0.315,0-0.698-0.067-1.144-0.197
		c-0.447-0.132-0.868-0.329-1.262-0.592c-0.395-0.264-0.724-0.592-0.986-0.986c-0.264-0.395-0.395-0.829-0.395-1.302
		c0-0.315,0.342-0.645,1.026-0.986c0.683-0.343,1.499-0.724,2.446-1.144c0.947-0.421,1.906-0.895,2.88-1.42
		c0.973-0.526,1.775-1.158,2.406-1.894c2.367-3.156,4.024-6.378,4.971-9.665c0.947-3.288,1.42-6.825,1.42-10.612
		c0-0.42,0-0.801,0-1.144c0-0.341,0.026-0.697,0.079-1.065c-0.053-0.052-0.185-0.079-0.395-0.079
		c-0.315,0.737-0.763,1.447-1.341,2.13c-0.58,0.684-1.223,1.315-1.933,1.894c-0.71,0.578-1.434,1.038-2.169,1.38
		c-0.737,0.342-1.42,0.513-2.051,0.513c-1.947,0-3.499-0.631-4.655-1.894c-1.158-1.263-2.039-2.788-2.643-4.576
		c-0.605-1.788-1-3.655-1.184-5.602c-0.185-1.945-0.276-3.602-0.276-4.97c0-0.316,0.012-0.631,0.04-0.947
		c0.026-0.316,0.039-0.631,0.039-0.947c0-0.894-0.027-1.748-0.079-2.564c-0.053-0.815-0.079-1.669-0.079-2.564
		c0-0.631,0.026-1.354,0.079-2.17c0.052-0.814,0.184-1.59,0.395-2.327c0.209-0.736,0.486-1.354,0.828-1.854
		c0.342-0.499,0.802-0.75,1.381-0.75c1.209,0,2.077,0.237,2.604,0.71c0.525,0.473,0.868,1.065,1.026,1.775
		c0.158,0.71,0.237,1.487,0.237,2.328c0,0.842,0.079,1.605,0.236,2.288c-0.053,0.737-0.092,1.67-0.118,2.801
		c-0.027,1.132-0.04,2.039-0.04,2.722V50.257z"/>
	<path d="M156.165,50.415c1.052,2,2.024,4.011,2.919,6.036c0.895,2.025,1.342,4.3,1.342,6.825c0,1.315-0.225,2.552-0.671,3.708
		c-0.447,1.156-1.065,2.182-1.854,3.077c-0.789,0.894-1.735,1.604-2.84,2.13c-1.104,0.525-2.288,0.789-3.551,0.789
		c-1.104,0-2.117-0.434-3.037-1.302c-0.921-0.868-1.434-1.854-1.539-2.958c0.21-0.421,0.407-0.724,0.592-0.907
		c0.184-0.185,0.592-0.355,1.224-0.513c0.631,0.631,1.263,0.947,1.894,0.947c0.894,0,1.683-0.394,2.367-1.183
		c0.683-0.789,1.025-1.788,1.025-2.998c0-0.42-0.027-0.683-0.079-0.789c-0.579-2.367-1.315-4.51-2.209-6.43
		c-0.896-1.919-1.775-3.721-2.644-5.405c-0.867-1.683-1.617-3.274-2.248-4.773s-0.947-3.011-0.947-4.537
		c0-1.263,0.105-2.564,0.316-3.906c0.209-1.341,0.578-2.59,1.104-3.748c0.525-1.156,1.224-2.103,2.092-2.84
		c0.867-0.736,1.984-1.104,3.353-1.104c0.157,0,0.302,0.014,0.435,0.04c0.131,0.027,0.275,0.039,0.434,0.039
		c0.525,0,0.973,0.276,1.342,0.829c0.367,0.552,0.631,1.039,0.788,1.459c0,0.422-0.146,0.75-0.434,0.986
		c-0.29,0.237-0.565,0.487-0.829,0.75c-0.631,0.842-1.092,1.775-1.381,2.801c-0.289,1.026-0.434,2.065-0.434,3.117v1.894
		c0,0.369,0.131,0.895,0.395,1.578c0.263,0.684,0.564,1.408,0.908,2.169c0.341,0.763,0.683,1.473,1.025,2.13
		c0.342,0.658,0.617,1.144,0.828,1.459L156.165,50.415z"/>
	<path d="M177.309,57.121c0,1.42,0.092,2.828,0.276,4.221c0.184,1.394,0.276,2.828,0.276,4.3c0,1.156-0.383,2.024-1.145,2.604
		c-0.763,0.579-1.645,0.868-2.643,0.868c-0.896,0-1.578-0.118-2.052-0.355s-0.828-0.552-1.065-0.947
		c-0.236-0.395-0.382-0.842-0.434-1.341c-0.053-0.5-0.079-1.038-0.079-1.618c0-1.894,0.013-3.892,0.04-5.996
		c0.025-2.103,0.039-4.221,0.039-6.351c0-2.13,0.013-4.221,0.04-6.272c0.025-2.051,0.039-3.997,0.039-5.838
		c0-3.472-0.093-6.904-0.276-10.296c-0.185-3.393-0.276-6.982-0.276-10.77c0-0.578,0.131-1.209,0.395-1.894
		c0.525-0.578,1.117-1.012,1.775-1.302c0.657-0.289,1.354-0.513,2.091-0.67c1.367,0.21,2.327,0.724,2.88,1.538
		c0.553,0.816,0.828,2.039,0.828,3.669c0,6.049-0.066,11.31-0.197,15.78c-0.132,4.471-0.275,8.548-0.434,12.229
		c1.052-0.894,2.091-1.84,3.116-2.84c1.026-0.999,1.934-2.051,2.723-3.156c0.262-0.736,0.604-1.486,1.025-2.249
		c0.42-0.762,0.933-1.446,1.538-2.052c0.604-0.604,1.263-1.104,1.973-1.499s1.485-0.592,2.327-0.592
		c0.21,0.106,0.486,0.211,0.829,0.316c0.341,0.106,0.644,0.237,0.907,0.395c0.263,0.158,0.499,0.355,0.71,0.592
		c0.21,0.236,0.315,0.565,0.315,0.986c0,0.58-0.368,1.473-1.104,2.683c-0.737,1.21-1.605,2.499-2.604,3.866
		c-1,1.368-2.025,2.696-3.077,3.984c-1.053,1.29-1.921,2.327-2.604,3.116c1.052,1.684,2.313,3.13,3.787,4.339
		c1.472,1.211,2.892,2.276,4.261,3.195c1.367,0.921,2.524,1.724,3.471,2.407c0.947,0.684,1.421,1.315,1.421,1.894
		c0,0.684-0.172,1.236-0.513,1.657c-0.343,0.42-0.75,0.736-1.224,0.947c-0.473,0.209-0.974,0.355-1.499,0.434
		c-0.526,0.079-0.974,0.118-1.341,0.118c-0.737,0-1.71-0.448-2.919-1.341c-1.211-0.894-2.485-1.945-3.827-3.156
		c-1.341-1.209-2.696-2.446-4.063-3.708c-1.368-1.262-2.604-2.261-3.708-2.998V57.121z"/>
	<path d="M212.339,63.985c0,0.421-0.106,0.842-0.315,1.262c-0.211,0.422-0.605,0.92-1.184,1.499c-0.896,0-1.724-0.079-2.485-0.236
		c-0.764-0.158-1.421-0.474-1.973-0.947c-0.553-0.474-0.986-1.157-1.302-2.051c-0.315-0.894-0.474-2.104-0.474-3.629
		c0-0.894-0.093-1.788-0.276-2.683c-0.185-0.894-0.275-1.788-0.275-2.683c0-2.683-0.158-5.233-0.474-7.653
		c-0.315-2.419-0.474-4.971-0.474-7.653c0-1.104,0.446-1.945,1.342-2.525c0.524-0.158,1.025-0.276,1.499-0.355
		c0.473-0.079,0.998-0.17,1.577-0.276c0.736,0.21,1.289,0.513,1.657,0.907c0.367,0.395,0.71,0.776,1.025,1.144
		c-0.053,0.526-0.092,1.053-0.118,1.578c-0.027,0.526-0.039,1.079-0.039,1.657c0,2,0.104,4.13,0.315,6.391
		c0.209,2.262,0.446,4.418,0.71,6.47c0.263,2.051,0.513,3.919,0.75,5.602c0.236,1.684,0.406,2.972,0.513,3.866V63.985z
		 M205.395,19.566c0.263-0.263,0.736-0.395,1.42-0.395c0.525,0,1.065,0.092,1.617,0.276c0.553,0.185,1.065,0.447,1.539,0.789
		c0.474,0.343,0.854,0.724,1.144,1.144c0.289,0.422,0.435,0.868,0.435,1.341c0,1-0.251,1.67-0.75,2.012
		c-0.5,0.342-1.197,0.513-2.091,0.513c-0.579,0-1.171-0.091-1.775-0.276c-0.604-0.184-1.144-0.407-1.617-0.67
		c-0.474-0.263-0.855-0.539-1.144-0.829c-0.29-0.289-0.435-0.564-0.435-0.828c0-0.631,0.065-1.184,0.197-1.657
		C204.066,20.513,204.554,20.039,205.395,19.566z"/>
	<path d="M231.825,65.011c0,0.106,0.026,0.21,0.079,0.315c0.052,0.106,0.079,0.211,0.079,0.315c0,0.841-0.355,1.46-1.065,1.854
		c-0.71,0.395-1.434,0.592-2.169,0.592c-1.315,0-2.367-0.724-3.156-2.169c-0.789-1.446-1.395-3.129-1.814-5.05
		c-0.422-1.919-0.698-3.826-0.829-5.72c-0.132-1.894-0.197-3.314-0.197-4.261c0-2.576-0.013-4.878-0.039-6.903
		c-0.027-2.024-0.039-4.142-0.039-6.352c0-2.892,0.144-5.72,0.434-8.481c0.288-2.761,0.434-5.641,0.434-8.639
		c0-0.683,0.158-1.235,0.474-1.657c0.315-0.42,0.736-0.841,1.263-1.263c0.42,0,0.933,0.027,1.538,0.079
		c0.604,0.053,1.17,0.185,1.696,0.395c0.525,0.211,0.973,0.5,1.342,0.868c0.367,0.369,0.552,0.895,0.552,1.578
		c0,1.368-0.132,2.749-0.395,4.142c-0.264,1.394-0.395,2.775-0.395,4.142c0,2-0.014,3.801-0.039,5.405
		c-0.027,1.605-0.04,3.195-0.04,4.773c0,1.369,0.026,2.67,0.079,3.906c0.052,1.236,0.079,2.485,0.079,3.748
		c0,0.895,0.013,1.749,0.039,2.564c0.026,0.816,0.04,1.592,0.04,2.328c0,2.051,0.223,4.339,0.671,6.864
		C230.892,60.908,231.352,63.118,231.825,65.011z"/>
	<path d="M251.628,65.011c0,0.106,0.026,0.21,0.079,0.315c0.052,0.106,0.079,0.211,0.079,0.315c0,0.841-0.355,1.46-1.065,1.854
		c-0.71,0.395-1.434,0.592-2.169,0.592c-1.315,0-2.367-0.724-3.156-2.169c-0.789-1.446-1.395-3.129-1.814-5.05
		c-0.422-1.919-0.698-3.826-0.829-5.72c-0.132-1.894-0.197-3.314-0.197-4.261c0-2.576-0.013-4.878-0.039-6.903
		c-0.027-2.024-0.039-4.142-0.039-6.352c0-2.892,0.144-5.72,0.434-8.481c0.288-2.761,0.434-5.641,0.434-8.639
		c0-0.683,0.158-1.235,0.474-1.657c0.315-0.42,0.736-0.841,1.263-1.263c0.42,0,0.933,0.027,1.538,0.079
		c0.604,0.053,1.17,0.185,1.696,0.395c0.525,0.211,0.973,0.5,1.342,0.868c0.367,0.369,0.552,0.895,0.552,1.578
		c0,1.368-0.132,2.749-0.395,4.142c-0.264,1.394-0.395,2.775-0.395,4.142c0,2-0.014,3.801-0.039,5.405
		c-0.027,1.605-0.04,3.195-0.04,4.773c0,1.369,0.026,2.67,0.079,3.906c0.052,1.236,0.079,2.485,0.079,3.748
		c0,0.895,0.013,1.749,0.039,2.564c0.026,0.816,0.04,1.592,0.04,2.328c0,2.051,0.223,4.339,0.671,6.864
		C250.694,60.908,251.155,63.118,251.628,65.011z"/>
	<path d="M271.904,50.415c1.052,2,2.024,4.011,2.919,6.036c0.895,2.025,1.342,4.3,1.342,6.825c0,1.315-0.225,2.552-0.671,3.708
		c-0.447,1.156-1.065,2.182-1.854,3.077c-0.789,0.894-1.736,1.604-2.841,2.13c-1.104,0.525-2.288,0.789-3.551,0.789
		c-1.104,0-2.117-0.434-3.037-1.302c-0.921-0.868-1.434-1.854-1.538-2.958c0.209-0.421,0.406-0.724,0.592-0.907
		c0.184-0.185,0.591-0.355,1.223-0.513c0.631,0.631,1.262,0.947,1.894,0.947c0.894,0,1.683-0.394,2.367-1.183
		c0.683-0.789,1.025-1.788,1.025-2.998c0-0.42-0.027-0.683-0.079-0.789c-0.579-2.367-1.315-4.51-2.209-6.43
		c-0.896-1.919-1.775-3.721-2.644-5.405c-0.867-1.683-1.617-3.274-2.248-4.773c-0.632-1.499-0.947-3.011-0.947-4.537
		c0-1.263,0.105-2.564,0.315-3.906s0.578-2.59,1.105-3.748c0.524-1.156,1.223-2.103,2.09-2.84c0.868-0.736,1.985-1.104,3.354-1.104
		c0.158,0,0.302,0.014,0.434,0.04c0.131,0.027,0.276,0.039,0.435,0.039c0.525,0,0.973,0.276,1.341,0.829
		c0.367,0.552,0.632,1.039,0.789,1.459c0,0.422-0.146,0.75-0.434,0.986c-0.29,0.237-0.566,0.487-0.828,0.75
		c-0.632,0.842-1.093,1.775-1.381,2.801c-0.29,1.026-0.435,2.065-0.435,3.117v1.894c0,0.369,0.131,0.895,0.395,1.578
		c0.263,0.684,0.564,1.408,0.907,2.169c0.342,0.763,0.684,1.473,1.026,2.13c0.341,0.658,0.617,1.144,0.828,1.459L271.904,50.415z"/>
</g>
<g>
	<path d="M167.697,89.198c-2.001,8.427-4.641,16.657-7.599,24.785c-2.969,8.122-6.252,16.14-9.856,24.022
		c-3.585,7.892-7.554,15.614-11.789,23.198c-4.223,7.592-8.806,14.993-13.688,22.202c-2.439,3.604-4.968,7.16-7.525,10.679
		c-2.555,3.517-5.118,7.039-7.758,10.515c-5.255,6.966-10.823,13.772-17.217,19.835c-6.377,6.065-13.309,11.644-20.911,16.288
		c-3.797,2.321-7.808,4.34-11.964,5.996c-2.084,0.821-4.235,1.491-6.408,2.042c-2.198,0.502-4.395,0.909-6.728,0.81l-0.08-0.997
		c0.946-0.334,1.939-0.777,2.87-1.252c0.945-0.459,1.867-0.971,2.769-1.511c1.822-1.042,3.56-2.224,5.278-3.415
		c3.42-2.421,6.665-5.061,9.833-7.788c6.335-5.462,12.24-11.422,18.072-17.469l8.737-9.131l2.199-2.283l2.177-2.313
		c1.471-1.524,2.9-3.094,4.333-4.66c5.746-6.265,11.149-12.871,16.225-19.679c10.149-13.645,19.342-28.065,27.429-43.129
		c8.094-15.047,15.21-30.731,20.634-46.997L167.697,89.198z"/>
</g>
<g>
	<polygon points="43.873,214.346 8.302,264.298 5.713,259.461 106.713,262.572 5.713,265.684 0,265.86 3.124,260.846 
		35.553,208.799 	"/>
</g>
<path class="st0" d="M148.713,228.572"/>
</svg>
